<svg width="269" height="150" viewBox="0 0 269 150" fill="none" xmlns="http://www.w3.org/2000/svg">
<path d="M29.4 122.16C24.36 122.16 19.92 121.28 16.08 119.52C12.24 117.76 9.28 115.32 7.2 112.2C5.12 109 4.08 105.32 4.08 101.16C4.08 97.64 4.8 94.44 6.24 91.56C7.76 88.68 9.76 86.4 12.24 84.72C14.8 83.04 17.6 82.2 20.64 82.2C23.44 82.2 25.8 82.92 27.72 84.36C29.64 85.72 30.84 87.64 31.32 90.12C27.16 90.12 23.84 91.24 21.36 93.48C18.88 95.64 17.64 98.6 17.64 102.36C17.64 105.8 18.68 108.56 20.76 110.64C22.84 112.72 25.6 113.76 29.04 113.76C33.28 113.76 36.76 112.36 39.48 109.56C42.28 106.68 43.68 103.08 43.68 98.76C43.68 95 42.64 91.44 40.56 88.08C38.48 84.72 35.36 80.64 31.2 75.84C26.88 70.88 23.6 66.64 21.36 63.12C19.2 59.52 18.12 55.6 18.12 51.36C18.12 47.2 19.28 43.48 21.6 40.2C23.92 36.84 27.12 34.2 31.2 32.28C35.28 30.36 39.88 29.4 45 29.4C51.48 29.4 56.64 30.92 60.48 33.96C64.4 37 66.36 41.08 66.36 46.2C66.36 49.56 65.52 52.28 63.84 54.36C62.16 56.44 59.96 57.48 57.24 57.48C54.2 57.48 51.76 56.24 49.92 53.76C51.44 52.64 52.64 51.16 53.52 49.32C54.4 47.48 54.84 45.56 54.84 43.56C54.84 41 54.08 38.96 52.56 37.44C51.04 35.92 48.96 35.16 46.32 35.16C43.12 35.16 40.48 36.32 38.4 38.64C36.4 40.88 35.4 43.76 35.4 47.28C35.4 50.48 36.32 53.48 38.16 56.28C40 59 42.88 62.52 46.8 66.84C50 70.28 52.56 73.24 54.48 75.72C56.48 78.2 58.16 81.08 59.52 84.36C60.96 87.56 61.68 91.04 61.68 94.8C61.68 99.92 60.24 104.56 57.36 108.72C54.56 112.88 50.68 116.16 45.72 118.56C40.84 120.96 35.4 122.16 29.4 122.16ZM111.758 120.72C106.878 120.72 103.278 119.44 100.958 116.88C98.7175 114.24 97.5975 111 97.5975 107.16C97.5975 105.48 97.7975 103.6 98.1975 101.52C98.5975 99.36 98.9975 97.28 99.3975 95.28C99.8775 93.28 100.197 92 100.358 91.44C100.998 88.64 101.598 85.88 102.158 83.16C102.718 80.44 102.998 78.24 102.998 76.56C102.998 72.48 101.558 70.44 98.6775 70.44C96.5975 70.44 94.7575 71.48 93.1575 73.56C91.5575 75.56 90.2775 78.2 89.3175 81.48L81.1575 120H63.8775L81.2775 38.4L99.0375 36L92.5575 66.24C96.5575 61.76 101.238 59.52 106.598 59.52C110.678 59.52 113.918 60.64 116.318 62.88C118.718 65.12 119.918 68.52 119.918 73.08C119.918 75.4 119.638 78 119.078 80.88C118.518 83.68 117.718 87.12 116.678 91.2C116.038 93.68 115.438 96.12 114.878 98.52C114.398 100.84 114.158 102.68 114.158 104.04C114.158 105.64 114.518 106.88 115.238 107.76C115.958 108.64 117.198 109.08 118.958 109.08C121.358 109.08 123.278 108.24 124.718 106.56C126.158 104.8 127.598 102.12 129.037 98.52H134.078C131.118 107.32 127.678 113.24 123.758 116.28C119.918 119.24 115.918 120.72 111.758 120.72ZM149.063 53.52C146.423 53.52 144.183 52.6 142.343 50.76C140.503 48.92 139.583 46.68 139.583 44.04C139.583 41.4 140.503 39.16 142.343 37.32C144.183 35.4 146.423 34.44 149.063 34.44C151.703 34.44 153.943 35.4 155.783 37.32C157.703 39.16 158.663 41.4 158.663 44.04C158.663 46.68 157.703 48.92 155.783 50.76C153.943 52.6 151.703 53.52 149.063 53.52ZM140.903 120.72C137.063 120.72 133.943 119.52 131.543 117.12C129.223 114.72 128.063 111.12 128.063 106.32C128.063 104.32 128.383 101.72 129.023 98.52L137.183 60H154.463L145.823 100.8C145.503 102 145.343 103.28 145.343 104.64C145.343 106.24 145.703 107.4 146.423 108.12C147.223 108.76 148.503 109.08 150.263 109.08C152.583 109.08 154.743 108.12 156.743 106.2C158.743 104.2 160.183 101.64 161.063 98.52H166.103C163.143 107.16 159.343 113.04 154.703 116.16C150.063 119.2 145.463 120.72 140.903 120.72ZM204.336 120.72C199.456 120.72 195.856 119.44 193.536 116.88C191.296 114.24 190.176 111 190.176 107.16C190.176 105.48 190.376 103.6 190.776 101.52C191.176 99.36 191.576 97.28 191.976 95.28C192.456 93.28 192.776 92 192.936 91.44C193.576 88.64 194.176 85.88 194.736 83.16C195.296 80.44 195.576 78.24 195.576 76.56C195.576 72.48 194.136 70.44 191.256 70.44C189.176 70.44 187.336 71.48 185.736 73.56C184.136 75.56 182.856 78.2 181.896 81.48L173.736 120H156.456L169.176 60H186.456L185.136 66.24C189.136 61.76 193.816 59.52 199.176 59.52C203.256 59.52 206.496 60.64 208.896 62.88C211.296 65.12 212.496 68.52 212.496 73.08C212.496 75.4 212.216 78 211.656 80.88C211.096 83.68 210.296 87.12 209.256 91.2C208.616 93.68 208.016 96.12 207.456 98.52C206.976 100.84 206.736 102.68 206.736 104.04C206.736 105.64 207.096 106.88 207.816 107.76C208.536 108.64 209.776 109.08 211.536 109.08C213.936 109.08 215.856 108.24 217.296 106.56C218.736 104.8 220.176 102.12 221.616 98.52H226.656C223.696 107.32 220.256 113.24 216.336 116.28C212.496 119.24 208.496 120.72 204.336 120.72ZM238.522 120.72C232.682 120.72 228.122 119.2 224.842 116.16C221.562 113.04 219.922 108.2 219.922 101.64C219.922 96.12 221.002 90.04 223.162 83.4C225.322 76.76 228.842 71.04 233.722 66.24C238.602 61.36 244.802 58.92 252.322 58.92C261.122 58.92 265.522 62.76 265.522 70.44C265.522 74.92 264.242 79.04 261.682 82.8C259.122 86.56 255.722 89.6 251.482 91.92C247.242 94.16 242.722 95.44 237.922 95.76C237.762 97.52 237.682 98.72 237.682 99.36C237.682 106 240.162 109.32 245.122 109.32C247.362 109.32 249.762 108.72 252.322 107.52C254.882 106.32 257.202 104.8 259.282 102.96C257.122 114.8 250.202 120.72 238.522 120.72ZM238.762 90C241.802 89.92 244.642 88.92 247.282 87C250.002 85.08 252.162 82.64 253.762 79.68C255.442 76.64 256.282 73.48 256.282 70.2C256.282 66.92 255.282 65.28 253.282 65.28C250.482 65.28 247.682 67.84 244.882 72.96C242.162 78 240.122 83.68 238.762 90Z" fill="#146E93"/>
<path d="M16.08 119.52L14.83 122.247L14.83 122.247L16.08 119.52ZM7.2 112.2L4.68467 113.835L4.69417 113.85L4.70385 113.864L7.2 112.2ZM6.24 91.56L3.58685 90.1597L3.57146 90.1889L3.55672 90.2184L6.24 91.56ZM12.24 84.72L10.594 82.2119L10.5757 82.2239L10.5575 82.2362L12.24 84.72ZM27.72 84.36L25.92 86.76L25.9526 86.7845L25.9859 86.8081L27.72 84.36ZM31.32 90.12V93.12H34.9563L34.2653 89.5499L31.32 90.12ZM21.36 93.48L23.3303 95.7422L23.3508 95.7245L23.3709 95.7063L21.36 93.48ZM39.48 109.56L37.329 107.469L37.3282 107.47L39.48 109.56ZM40.56 88.08L43.1108 86.5009L43.1108 86.5009L40.56 88.08ZM31.2 75.84L33.4671 73.8752L33.4622 73.8697L31.2 75.84ZM21.36 63.12L18.7875 64.6635L18.8078 64.6973L18.829 64.7306L21.36 63.12ZM21.6 40.2L24.0492 41.9324L24.059 41.9185L24.0687 41.9046L21.6 40.2ZM31.2 32.28L32.4774 34.9945L32.4774 34.9945L31.2 32.28ZM60.48 33.96L58.6179 36.3121L58.6297 36.3215L58.6415 36.3307L60.48 33.96ZM63.84 54.36L61.5062 52.475L61.5062 52.475L63.84 54.36ZM49.92 53.76L48.1404 51.3448L45.7173 53.1303L47.5107 55.5475L49.92 53.76ZM53.52 49.32L50.8136 48.0256L50.8136 48.0256L53.52 49.32ZM38.4 38.64L36.1663 36.6374L36.1622 36.6419L38.4 38.64ZM38.16 56.28L35.6529 57.9275L35.6639 57.9443L35.6752 57.9609L38.16 56.28ZM46.8 66.84L44.5783 68.856L44.5908 68.8697L44.6034 68.8833L46.8 66.84ZM54.48 75.72L52.1078 77.5565L52.1261 77.5801L52.1448 77.6033L54.48 75.72ZM59.52 84.36L56.7488 85.509L56.7659 85.5503L56.7842 85.5911L59.52 84.36ZM57.36 108.72L54.8934 107.012L54.8822 107.029L54.8712 107.045L57.36 108.72ZM45.72 118.56L44.4133 115.86L44.4047 115.864L44.396 115.868L45.72 118.56ZM29.4 119.16C24.7093 119.16 20.7094 118.342 17.33 116.793L14.83 122.247C19.1306 124.218 24.0107 125.16 29.4 125.16V119.16ZM17.33 116.793C13.9302 115.235 11.4296 113.136 9.69615 110.536L4.70385 113.864C7.13036 117.504 10.5498 120.285 14.83 122.247L17.33 116.793ZM9.71533 110.565C7.98003 107.895 7.08 104.794 7.08 101.16H1.08C1.08 105.846 2.25997 110.105 4.68467 113.835L9.71533 110.565ZM7.08 101.16C7.08 98.0616 7.71045 95.3273 8.92328 92.9016L3.55672 90.2184C1.88955 93.5527 1.08 97.2184 1.08 101.16H7.08ZM8.89315 92.9603C10.2039 90.4768 11.8849 88.5841 13.9225 87.2038L10.5575 82.2362C7.63506 84.2159 5.3161 86.8832 3.58685 90.1597L8.89315 92.9603ZM13.886 87.2281C15.9608 85.8666 18.1894 85.2 20.64 85.2V79.2C17.0106 79.2 13.6392 80.2134 10.594 82.2119L13.886 87.2281ZM20.64 85.2C22.9031 85.2 24.6024 85.7718 25.92 86.76L29.52 81.96C26.9976 80.0682 23.9769 79.2 20.64 79.2V85.2ZM25.9859 86.8081C27.2262 87.6866 28.0296 88.9074 28.3747 90.6901L34.2653 89.5499C33.6504 86.3726 32.0538 83.7534 29.4541 81.9119L25.9859 86.8081ZM31.32 87.12C26.6065 87.12 22.5066 88.4018 19.3491 91.2537L23.3709 95.7063C25.1734 94.0782 27.7135 93.12 31.32 93.12V87.12ZM19.3897 91.2178C16.1581 94.0324 14.64 97.8706 14.64 102.36H20.64C20.64 99.3294 21.6019 97.2476 23.3303 95.7422L19.3897 91.2178ZM14.64 102.36C14.64 106.45 15.9009 110.024 18.6387 112.761L22.8813 108.519C21.4591 107.096 20.64 105.15 20.64 102.36H14.64ZM18.6387 112.761C21.3764 115.499 24.9498 116.76 29.04 116.76V110.76C26.2502 110.76 24.3036 109.941 22.8813 108.519L18.6387 112.761ZM29.04 116.76C34.0133 116.76 38.2952 115.085 41.6318 111.65L37.3282 107.47C35.2248 109.635 32.5467 110.76 29.04 110.76V116.76ZM41.631 111.651C45.019 108.166 46.68 103.796 46.68 98.76H40.68C40.68 102.364 39.541 105.194 37.329 107.469L41.631 111.651ZM46.68 98.76C46.68 94.4131 45.4688 90.31 43.1108 86.5009L38.0092 89.6591C39.8112 92.57 40.68 95.5869 40.68 98.76H46.68ZM43.1108 86.5009C40.9119 82.9488 37.6771 78.7329 33.4671 73.8752L28.9329 77.8048C33.0429 82.5471 36.0482 86.4912 38.0092 89.6591L43.1108 86.5009ZM33.4622 73.8697C29.1915 68.9662 26.0184 64.8525 23.891 61.5094L18.829 64.7306C21.1816 68.4275 24.5685 72.7938 28.9378 77.8103L33.4622 73.8697ZM23.9325 61.5765C22.0551 58.4476 21.12 55.062 21.12 51.36H15.12C15.12 56.138 16.3449 60.5924 18.7875 64.6635L23.9325 61.5765ZM21.12 51.36C21.12 47.7971 22.1009 44.687 24.0492 41.9324L19.1508 38.4676C16.4591 42.273 15.12 46.6029 15.12 51.36H21.12ZM24.0687 41.9046C26.057 39.0249 28.8253 36.7131 32.4774 34.9945L29.9226 29.5655C25.4147 31.6869 21.783 34.6551 19.1313 38.4954L24.0687 41.9046ZM32.4774 34.9945C36.1069 33.2865 40.2617 32.4 45 32.4V26.4C39.4983 26.4 34.4531 27.4335 29.9226 29.5655L32.4774 34.9945ZM45 32.4C51.0229 32.4 55.4572 33.8099 58.6179 36.3121L62.3421 31.6079C57.8228 28.0301 51.9371 26.4 45 26.4V32.4ZM58.6415 36.3307C61.8017 38.7814 63.36 41.9725 63.36 46.2H69.36C69.36 40.1875 66.9983 35.2186 62.3185 31.5893L58.6415 36.3307ZM63.36 46.2C63.36 49.0541 62.6541 51.0537 61.5062 52.475L66.1738 56.245C68.3859 53.5063 69.36 50.0659 69.36 46.2H63.36ZM61.5062 52.475C60.4071 53.8358 59.0718 54.48 57.24 54.48V60.48C60.8482 60.48 63.9129 59.0442 66.1738 56.245L61.5062 52.475ZM57.24 54.48C55.1673 54.48 53.614 53.704 52.3293 51.9725L47.5107 55.5475C49.906 58.776 53.2327 60.48 57.24 60.48V54.48ZM51.6996 56.1752C53.6472 54.7401 55.1516 52.8618 56.2264 50.6144L50.8136 48.0256C50.1285 49.4582 49.2328 50.5399 48.1404 51.3448L51.6996 56.1752ZM56.2264 50.6144C57.2957 48.3785 57.84 46.017 57.84 43.56H51.84C51.84 45.103 51.5043 46.5815 50.8136 48.0256L56.2264 50.6144ZM57.84 43.56C57.84 40.3673 56.8696 37.5069 54.6813 35.3187L50.4387 39.5613C51.2905 40.4131 51.84 41.6327 51.84 43.56H57.84ZM54.6813 35.3187C52.4756 33.113 49.5628 32.16 46.32 32.16V38.16C48.3572 38.16 49.6044 38.727 50.4387 39.5613L54.6813 35.3187ZM46.32 32.16C42.2938 32.16 38.8326 33.6634 36.1663 36.6374L40.6337 40.6426C42.1274 38.9766 43.9462 38.16 46.32 38.16V32.16ZM36.1622 36.6419C33.5886 39.5244 32.4 43.1575 32.4 47.28H38.4C38.4 44.3625 39.2115 42.2356 40.6378 40.638L36.1622 36.6419ZM32.4 47.28C32.4 51.0939 33.5073 54.6625 35.6529 57.9275L40.6671 54.6325C39.1327 52.2975 38.4 49.8661 38.4 47.28H32.4ZM35.6752 57.9609C37.6333 60.8556 40.6239 64.498 44.5783 68.856L49.0217 64.824C45.1361 60.542 42.3667 57.1444 40.6449 54.5991L35.6752 57.9609ZM44.6034 68.8833C47.7689 72.2862 50.2631 75.1738 52.1078 77.5565L56.8522 73.8835C54.8569 71.3062 52.2311 68.2738 48.9966 64.7967L44.6034 68.8833ZM52.1448 77.6033C53.946 79.8367 55.486 82.4635 56.7488 85.509L62.2912 83.211C60.834 79.6965 59.0141 76.5633 56.8152 73.8367L52.1448 77.6033ZM56.7842 85.5911C58.0378 88.3769 58.68 91.4336 58.68 94.8H64.68C64.68 90.6464 63.8822 86.7431 62.2558 83.1289L56.7842 85.5911ZM58.68 94.8C58.68 99.3176 57.4217 103.36 54.8934 107.012L59.8266 110.428C63.0583 105.76 64.68 100.522 64.68 94.8H58.68ZM54.8712 107.045C52.3964 110.722 48.9441 113.667 44.4133 115.86L47.0267 121.26C52.4159 118.653 56.7236 115.038 59.8488 110.395L54.8712 107.045ZM44.396 115.868C39.9691 118.045 34.989 119.16 29.4 119.16V125.16C35.811 125.16 41.711 123.875 47.044 121.252L44.396 115.868ZM100.958 116.88L98.67 118.821L98.7017 118.858L98.7345 118.895L100.958 116.88ZM98.1975 101.52L101.144 102.087L101.145 102.076L101.147 102.066L98.1975 101.52ZM99.3975 95.28L96.4803 94.5799L96.467 94.6355L96.4558 94.6917L99.3975 95.28ZM100.358 91.44L103.242 92.2642L103.264 92.1869L103.282 92.1085L100.358 91.44ZM93.1575 73.56L95.5001 75.4341L95.518 75.4118L95.5354 75.3891L93.1575 73.56ZM89.3175 81.48L86.4383 80.6373L86.4063 80.7467L86.3826 80.8583L89.3175 81.48ZM81.1575 120V123H83.5886L84.0924 120.622L81.1575 120ZM63.8775 120L60.9435 119.374L60.1703 123H63.8775V120ZM81.2775 38.4L80.8757 35.427L78.7837 35.7097L78.3435 37.7744L81.2775 38.4ZM99.0375 36L101.971 36.6286L102.865 32.4555L98.6357 33.027L99.0375 36ZM92.5575 66.24L89.6241 65.6114L87.2505 76.6883L94.7953 68.238L92.5575 66.24ZM119.078 80.88L122.019 81.4683L122.021 81.4605L122.022 81.4526L119.078 80.88ZM116.678 91.2L119.582 91.9496L119.585 91.941L116.678 91.2ZM114.878 98.52L111.956 97.8383L111.947 97.8751L111.94 97.9122L114.878 98.52ZM124.718 106.56L126.995 108.512L127.018 108.486L127.039 108.46L124.718 106.56ZM129.037 98.52V95.52H127.006L126.252 97.4058L129.037 98.52ZM134.078 98.52L136.921 99.4764L138.252 95.52H134.078V98.52ZM123.758 116.28L125.589 118.656L125.596 118.651L123.758 116.28ZM111.758 117.72C107.365 117.72 104.729 116.574 103.18 114.865L98.7345 118.895C101.826 122.306 106.39 123.72 111.758 123.72V117.72ZM103.245 114.939C101.516 112.901 100.598 110.372 100.598 107.16H94.5975C94.5975 111.628 95.919 115.579 98.67 118.821L103.245 114.939ZM100.598 107.16C100.598 105.712 100.771 104.026 101.144 102.087L95.2515 100.953C94.8244 103.174 94.5975 105.248 94.5975 107.16H100.598ZM101.147 102.066C101.545 99.9193 101.942 97.8533 102.339 95.8683L96.4558 94.6917C96.0528 96.7067 95.6501 98.8007 95.2477 100.974L101.147 102.066ZM102.315 95.9801C102.799 93.9622 103.103 92.7499 103.242 92.2642L97.4729 90.6158C97.2917 91.2501 96.956 92.5977 96.4803 94.5799L102.315 95.9801ZM103.282 92.1085C103.927 89.2881 104.531 86.5069 105.096 83.765L99.2191 82.555C98.6636 85.2531 98.0683 87.9919 97.4329 90.7715L103.282 92.1085ZM105.096 83.765C105.674 80.9568 105.998 78.5316 105.998 76.56H99.9975C99.9975 77.9484 99.761 79.9232 99.2191 82.555L105.096 83.765ZM105.998 76.56C105.998 74.2585 105.608 71.9959 104.368 70.2399C102.994 68.2927 100.92 67.44 98.6775 67.44V73.44C99.0442 73.44 99.2209 73.5043 99.2865 73.5352C99.3367 73.5589 99.3911 73.5931 99.4666 73.7C99.6671 73.9841 99.9975 74.7815 99.9975 76.56H105.998ZM98.6775 67.44C95.4272 67.44 92.784 69.1252 90.7796 71.7309L95.5354 75.3891C96.731 73.8348 97.7678 73.44 98.6775 73.44V67.44ZM90.8149 71.6859C88.9036 74.075 87.4735 77.1004 86.4383 80.6373L92.1967 82.3227C93.0815 79.2996 94.2114 77.045 95.5001 75.4341L90.8149 71.6859ZM86.3826 80.8583L78.2226 119.378L84.0924 120.622L92.2524 82.1017L86.3826 80.8583ZM81.1575 117H63.8775V123H81.1575V117ZM66.8115 120.626L84.2115 39.0256L78.3435 37.7744L60.9435 119.374L66.8115 120.626ZM81.6793 41.373L99.4393 38.973L98.6357 33.027L80.8757 35.427L81.6793 41.373ZM96.1041 35.3714L89.6241 65.6114L95.4909 66.8686L101.971 36.6286L96.1041 35.3714ZM94.7953 68.238C98.3025 64.31 102.2 62.52 106.598 62.52V56.52C100.275 56.52 94.8125 59.21 90.3197 64.242L94.7953 68.238ZM106.598 62.52C110.111 62.52 112.553 63.4699 114.271 65.0732L118.364 60.6868C115.282 57.8101 111.244 56.52 106.598 56.52V62.52ZM114.271 65.0732C115.856 66.5528 116.918 69.0187 116.918 73.08H122.918C122.918 68.0213 121.579 63.6872 118.364 60.6868L114.271 65.0732ZM116.918 73.08C116.918 75.1652 116.665 77.5691 116.133 80.3074L122.022 81.4526C122.61 78.4309 122.918 75.6348 122.918 73.08H116.918ZM116.136 80.2917C115.59 83.0227 114.803 86.4083 113.77 90.459L119.585 91.941C120.632 87.8317 121.445 84.3373 122.019 81.4683L116.136 80.2917ZM113.773 90.4504C113.127 92.9521 112.521 95.4147 111.956 97.8383L117.799 99.2017C118.354 96.8253 118.948 94.4079 119.582 91.9496L113.773 90.4504ZM111.94 97.9122C111.444 100.308 111.158 102.38 111.158 104.04H117.158C117.158 102.98 117.351 101.372 117.815 99.1278L111.94 97.9122ZM111.158 104.04C111.158 106.055 111.609 108.062 112.916 109.66L117.559 105.86C117.426 105.698 117.158 105.225 117.158 104.04H111.158ZM112.916 109.66C114.459 111.546 116.795 112.08 118.958 112.08V106.08C117.6 106.08 117.456 105.734 117.559 105.86L112.916 109.66ZM118.958 112.08C122.149 112.08 124.933 110.918 126.995 108.512L122.44 104.608C121.622 105.562 120.566 106.08 118.958 106.08V112.08ZM127.039 108.46C128.762 106.354 130.337 103.348 131.823 99.6342L126.252 97.4058C124.858 100.892 123.553 103.246 122.396 104.66L127.039 108.46ZM129.037 101.52H134.078V95.52H129.037V101.52ZM131.234 97.5636C128.322 106.22 125.116 111.43 121.919 113.909L125.596 118.651C130.239 115.05 133.913 108.42 136.921 99.4764L131.234 97.5636ZM121.926 113.904C118.52 116.529 115.149 117.72 111.758 117.72V123.72C116.686 123.72 121.315 121.951 125.589 118.656L121.926 113.904ZM142.343 50.76L144.465 48.6387L144.465 48.6387L142.343 50.76ZM142.343 37.32L144.465 39.4413L144.487 39.4188L144.509 39.3957L142.343 37.32ZM155.783 37.32L153.617 39.3957L153.662 39.4418L153.708 39.486L155.783 37.32ZM155.783 50.76L153.708 48.594L153.685 48.6161L153.662 48.6387L155.783 50.76ZM131.543 117.12L129.386 119.205L129.404 119.223L129.422 119.241L131.543 117.12ZM129.023 98.52L126.089 97.8983L126.085 97.9149L126.082 97.9317L129.023 98.52ZM137.183 60V57H134.752L134.249 59.3783L137.183 60ZM154.463 60L157.398 60.6215L158.165 57H154.463V60ZM145.823 100.8L148.722 101.573L148.742 101.498L148.758 101.422L145.823 100.8ZM146.423 108.12L144.302 110.241L144.42 110.359L144.549 110.463L146.423 108.12ZM156.743 106.2L158.821 108.364L158.843 108.343L158.865 108.321L156.743 106.2ZM161.063 98.52V95.52H158.793L158.176 97.7056L161.063 98.52ZM166.103 98.52L168.942 99.4923L170.302 95.52H166.103V98.52ZM154.703 116.16L156.348 118.669L156.363 118.66L156.377 118.65L154.703 116.16ZM149.063 50.52C147.206 50.52 145.733 49.9069 144.465 48.6387L140.222 52.8813C142.634 55.293 145.641 56.52 149.063 56.52V50.52ZM144.465 48.6387C143.196 47.3704 142.583 45.8973 142.583 44.04H136.583C136.583 47.4627 137.81 50.4696 140.222 52.8813L144.465 48.6387ZM142.583 44.04C142.583 42.1827 143.196 40.7096 144.465 39.4413L140.222 35.1987C137.81 37.6104 136.583 40.6173 136.583 44.04H142.583ZM144.509 39.3957C145.788 38.0612 147.248 37.44 149.063 37.44V31.44C145.599 31.44 142.579 32.7387 140.177 35.2443L144.509 39.3957ZM149.063 37.44C150.879 37.44 152.339 38.0612 153.617 39.3957L157.949 35.2443C155.548 32.7387 152.528 31.44 149.063 31.44V37.44ZM153.708 39.486C155.042 40.7648 155.663 42.2245 155.663 44.04H161.663C161.663 40.5755 160.365 37.5552 157.859 35.154L153.708 39.486ZM155.663 44.04C155.663 45.8555 155.042 47.3152 153.708 48.594L157.859 52.926C160.365 50.5248 161.663 47.5045 161.663 44.04H155.663ZM153.662 48.6387C152.394 49.9069 150.921 50.52 149.063 50.52V56.52C152.486 56.52 155.493 55.293 157.905 52.8813L153.662 48.6387ZM140.903 117.72C137.745 117.72 135.426 116.76 133.665 114.999L129.422 119.241C132.46 122.28 136.382 123.72 140.903 123.72V117.72ZM133.7 115.035C132.119 113.399 131.063 110.683 131.063 106.32H125.063C125.063 111.557 126.328 116.041 129.386 119.205L133.7 115.035ZM131.063 106.32C131.063 104.602 131.343 102.22 131.965 99.1083L126.082 97.9317C125.424 101.22 125.063 104.038 125.063 106.32H131.063ZM131.958 99.1417L140.118 60.6217L134.249 59.3783L126.089 97.8983L131.958 99.1417ZM137.183 63H154.463V57H137.183V63ZM151.529 59.3785L142.889 100.178L148.758 101.422L157.398 60.6215L151.529 59.3785ZM142.925 100.027C142.531 101.502 142.343 103.044 142.343 104.64H148.343C148.343 103.516 148.475 102.498 148.722 101.573L142.925 100.027ZM142.343 104.64C142.343 106.595 142.77 108.709 144.302 110.241L148.545 105.999C148.637 106.091 148.343 105.885 148.343 104.64H142.343ZM144.549 110.463C146.146 111.74 148.265 112.08 150.263 112.08V106.08C149.553 106.08 149.049 106.014 148.711 105.93C148.374 105.845 148.278 105.762 148.298 105.777L144.549 110.463ZM150.263 112.08C153.505 112.08 156.378 110.709 158.821 108.364L154.666 104.036C153.108 105.531 151.662 106.08 150.263 106.08V112.08ZM158.865 108.321C161.278 105.908 162.952 102.875 163.951 99.3344L158.176 97.7056C157.415 100.405 156.209 102.492 154.622 104.079L158.865 108.321ZM161.063 101.52H166.103V95.52H161.063V101.52ZM163.265 97.5477C160.394 105.929 156.878 111.083 153.029 113.67L156.377 118.65C161.809 114.997 165.893 108.391 168.942 99.4923L163.265 97.5477ZM153.059 113.651C148.801 116.44 144.764 117.72 140.903 117.72V123.72C146.163 123.72 151.326 121.96 156.348 118.669L153.059 113.651ZM193.536 116.88L191.248 118.821L191.28 118.858L191.313 118.895L193.536 116.88ZM190.776 101.52L193.722 102.087L193.724 102.076L193.725 102.066L190.776 101.52ZM191.976 95.28L189.058 94.5799L189.045 94.6355L189.034 94.6917L191.976 95.28ZM192.936 91.44L195.82 92.2642L195.842 92.1869L195.86 92.1085L192.936 91.44ZM185.736 73.56L188.078 75.4341L188.096 75.4118L188.113 75.3891L185.736 73.56ZM181.896 81.48L179.016 80.6373L178.984 80.7467L178.961 80.8583L181.896 81.48ZM173.736 120V123H176.167L176.67 120.622L173.736 120ZM156.456 120L153.521 119.378L152.753 123H156.456V120ZM169.176 60V57H166.745L166.241 59.3778L169.176 60ZM186.456 60L189.391 60.6209L190.157 57H186.456V60ZM185.136 66.24L182.201 65.6191L179.868 76.6436L187.373 68.238L185.136 66.24ZM211.656 80.88L214.597 81.4683L214.599 81.4605L214.6 81.4526L211.656 80.88ZM209.256 91.2L212.16 91.9496L212.163 91.941L209.256 91.2ZM207.456 98.52L204.534 97.8383L204.526 97.8751L204.518 97.9122L207.456 98.52ZM217.296 106.56L219.573 108.512L219.596 108.486L219.617 108.46L217.296 106.56ZM221.616 98.52V95.52H219.585L218.83 97.4058L221.616 98.52ZM226.656 98.52L229.499 99.4764L230.83 95.52H226.656V98.52ZM216.336 116.28L218.167 118.656L218.174 118.651L216.336 116.28ZM204.336 117.72C199.944 117.72 197.307 116.574 195.759 114.865L191.313 118.895C194.404 122.306 198.968 123.72 204.336 123.72V117.72ZM195.823 114.939C194.094 112.901 193.176 110.372 193.176 107.16H187.176C187.176 111.628 188.497 115.579 191.248 118.821L195.823 114.939ZM193.176 107.16C193.176 105.712 193.349 104.026 193.722 102.087L187.83 100.953C187.403 103.174 187.176 105.248 187.176 107.16H193.176ZM193.725 102.066C194.123 99.9193 194.52 97.8533 194.917 95.8683L189.034 94.6917C188.631 96.7067 188.228 98.8007 187.826 100.974L193.725 102.066ZM194.893 95.9801C195.377 93.9622 195.681 92.7499 195.82 92.2642L190.051 90.6158C189.87 91.2501 189.534 92.5977 189.058 94.5799L194.893 95.9801ZM195.86 92.1085C196.505 89.2881 197.109 86.5069 197.674 83.765L191.797 82.555C191.242 85.2531 190.646 87.9919 190.011 90.7715L195.86 92.1085ZM197.674 83.765C198.252 80.9568 198.576 78.5316 198.576 76.56H192.576C192.576 77.9484 192.339 79.9232 191.797 82.555L197.674 83.765ZM198.576 76.56C198.576 74.2585 198.186 71.9959 196.947 70.2399C195.572 68.2927 193.498 67.44 191.256 67.44V73.44C191.622 73.44 191.799 73.5043 191.865 73.5352C191.915 73.5589 191.969 73.5931 192.045 73.7C192.245 73.9841 192.576 74.7815 192.576 76.56H198.576ZM191.256 67.44C188.005 67.44 185.362 69.1252 183.358 71.7309L188.113 75.3891C189.309 73.8348 190.346 73.44 191.256 73.44V67.44ZM183.393 71.6859C181.482 74.075 180.052 77.1004 179.016 80.6373L184.775 82.3227C185.66 79.2996 186.79 77.045 188.078 75.4341L183.393 71.6859ZM178.961 80.8583L170.801 119.378L176.67 120.622L184.83 82.1017L178.961 80.8583ZM173.736 117H156.456V123H173.736V117ZM159.39 120.622L172.11 60.6222L166.241 59.3778L153.521 119.378L159.39 120.622ZM169.176 63H186.456V57H169.176V63ZM183.521 59.3791L182.201 65.6191L188.071 66.8609L189.391 60.6209L183.521 59.3791ZM187.373 68.238C190.881 64.31 194.779 62.52 199.176 62.52V56.52C192.853 56.52 187.391 59.21 182.898 64.242L187.373 68.238ZM199.176 62.52C202.689 62.52 205.131 63.4699 206.849 65.0732L210.943 60.6868C207.86 57.8101 203.822 56.52 199.176 56.52V62.52ZM206.849 65.0732C208.434 66.5528 209.496 69.0187 209.496 73.08H215.496C215.496 68.0213 214.157 63.6872 210.943 60.6868L206.849 65.0732ZM209.496 73.08C209.496 75.1652 209.243 77.5691 208.711 80.3074L214.6 81.4526C215.188 78.4309 215.496 75.6348 215.496 73.08H209.496ZM208.714 80.2917C208.168 83.0227 207.381 86.4083 206.349 90.459L212.163 91.941C213.21 87.8317 214.024 84.3373 214.597 81.4683L208.714 80.2917ZM206.351 90.4504C205.705 92.9521 205.1 95.4147 204.534 97.8383L210.377 99.2017C210.932 96.8253 211.526 94.4079 212.16 91.9496L206.351 90.4504ZM204.518 97.9122C204.022 100.308 203.736 102.38 203.736 104.04H209.736C209.736 102.98 209.929 101.372 210.393 99.1278L204.518 97.9122ZM203.736 104.04C203.736 106.055 204.187 108.062 205.494 109.66L210.137 105.86C210.004 105.698 209.736 105.225 209.736 104.04H203.736ZM205.494 109.66C207.037 111.546 209.373 112.08 211.536 112.08V106.08C210.179 106.08 210.034 105.734 210.137 105.86L205.494 109.66ZM211.536 112.08C214.728 112.08 217.511 110.918 219.573 108.512L215.018 104.608C214.2 105.562 213.144 106.08 211.536 106.08V112.08ZM219.617 108.46C221.34 106.354 222.916 103.348 224.401 99.6342L218.83 97.4058C217.436 100.892 216.131 103.246 214.974 104.66L219.617 108.46ZM221.616 101.52H226.656V95.52H221.616V101.52ZM223.812 97.5636C220.901 106.22 217.694 111.43 214.497 113.909L218.174 118.651C222.817 115.05 226.491 108.42 229.499 99.4764L223.812 97.5636ZM214.504 113.904C211.099 116.529 207.727 117.72 204.336 117.72V123.72C209.264 123.72 213.893 121.951 218.167 118.656L214.504 113.904ZM224.842 116.16L222.774 118.334L222.788 118.347L222.802 118.36L224.842 116.16ZM223.162 83.4L226.014 84.328L226.014 84.328L223.162 83.4ZM233.722 66.24L235.825 68.3788L235.834 68.3701L235.843 68.3613L233.722 66.24ZM261.682 82.8L264.161 84.4884L264.161 84.4884L261.682 82.8ZM251.482 91.92L252.883 94.5726L252.902 94.5623L252.922 94.5518L251.482 91.92ZM237.922 95.76L237.722 92.7666L235.166 92.9371L234.934 95.4884L237.922 95.76ZM259.282 102.96L262.233 103.498L263.789 94.9671L257.294 100.713L259.282 102.96ZM238.762 90L235.829 89.3689L235.026 93.0993L238.84 92.999L238.762 90ZM247.282 87L245.552 84.5491L245.534 84.5613L245.517 84.5738L247.282 87ZM253.762 79.68L251.136 78.2289L251.129 78.2412L251.122 78.2534L253.762 79.68ZM244.882 72.96L242.249 71.5206L242.245 71.5279L242.241 71.5352L244.882 72.96ZM238.522 117.72C233.2 117.72 229.453 116.344 226.881 113.96L222.802 118.36C226.79 122.056 232.163 123.72 238.522 123.72V117.72ZM226.909 113.986C224.449 111.646 222.922 107.751 222.922 101.64H216.922C216.922 108.649 218.674 114.434 222.774 118.334L226.909 113.986ZM222.922 101.64C222.922 96.5059 223.927 90.7439 226.014 84.328L220.309 82.472C218.076 89.3361 216.922 95.7341 216.922 101.64H222.922ZM226.014 84.328C228.029 78.1363 231.296 72.8342 235.825 68.3788L231.618 64.1012C226.388 69.2458 222.615 75.3837 220.309 82.472L226.014 84.328ZM235.843 68.3613C240.107 64.0972 245.519 61.92 252.322 61.92V55.92C244.084 55.92 237.096 58.6228 231.6 64.1187L235.843 68.3613ZM252.322 61.92C256.352 61.92 258.814 62.8081 260.249 64.0603C261.606 65.2443 262.522 67.1767 262.522 70.44H268.522C268.522 66.0233 267.237 62.1957 264.194 59.5397C261.229 56.9519 257.091 55.92 252.322 55.92V61.92ZM262.522 70.44C262.522 74.308 261.428 77.8413 259.202 81.1116L264.161 84.4884C267.055 80.2387 268.522 75.532 268.522 70.44H262.522ZM259.202 81.1116C256.925 84.4549 253.892 87.1814 250.042 89.2882L252.922 94.5518C257.551 92.0186 261.318 88.6651 264.161 84.4884L259.202 81.1116ZM250.08 89.2674C246.214 91.3101 242.103 92.4746 237.722 92.7666L238.121 98.7534C243.34 98.4054 248.269 97.0099 252.883 94.5726L250.08 89.2674ZM234.934 95.4884C234.775 97.2342 234.682 98.5642 234.682 99.36H240.682C240.682 98.8758 240.748 97.8058 240.909 96.0316L234.934 95.4884ZM234.682 99.36C234.682 102.967 235.34 106.218 237.138 108.625C239.059 111.197 241.905 112.32 245.122 112.32V106.32C243.378 106.32 242.504 105.783 241.945 105.035C241.263 104.122 240.682 102.393 240.682 99.36H234.682ZM245.122 112.32C247.901 112.32 250.738 111.576 253.595 110.236L251.048 104.804C248.785 105.864 246.822 106.32 245.122 106.32V112.32ZM253.595 110.236C256.409 108.917 258.971 107.24 261.269 105.207L257.294 100.713C255.432 102.36 253.354 103.723 251.048 104.804L253.595 110.236ZM256.33 102.422C255.334 107.883 253.31 111.615 250.521 114C247.744 116.377 243.853 117.72 238.522 117.72V123.72C244.87 123.72 250.279 122.103 254.422 118.56C258.553 115.025 261.069 109.877 262.233 103.498L256.33 102.422ZM238.84 92.999C242.533 92.9018 245.953 91.6757 249.046 89.4262L245.517 84.5738C243.33 86.1643 241.071 86.9382 238.683 87.001L238.84 92.999ZM249.012 89.4509C252.114 87.2612 254.583 84.469 256.401 81.1065L251.122 78.2534C249.74 80.811 247.889 82.8988 245.552 84.5491L249.012 89.4509ZM256.387 81.1311C258.298 77.6739 259.282 74.0176 259.282 70.2H253.282C253.282 72.9424 252.585 75.6061 251.136 78.2289L256.387 81.1311ZM259.282 70.2C259.282 68.3528 259.017 66.4644 258.093 64.9482C257.022 63.191 255.275 62.28 253.282 62.28V68.28C253.364 68.28 253.291 68.2941 253.155 68.2198C253.014 68.1425 252.959 68.0542 252.97 68.0718C252.993 68.1093 253.078 68.272 253.154 68.645C253.229 69.0142 253.282 69.5234 253.282 70.2H259.282ZM253.282 62.28C250.901 62.28 248.811 63.3822 247.057 64.9859C245.319 66.5751 243.732 68.8093 242.249 71.5206L247.514 74.3994C248.831 71.9907 250.044 70.3849 251.106 69.4141C252.152 68.4578 252.863 68.28 253.282 68.28V62.28ZM242.241 71.5352C239.371 76.8543 237.241 82.8069 235.829 89.3689L241.694 90.6311C243.002 84.5531 244.952 79.1457 247.522 74.3848L242.241 71.5352Z" fill="#F7D7A0"/>
<mask id="path-3-inside-1" fill="white">
<path fill-rule="evenodd" clip-rule="evenodd" d="M152.92 36.3544L148.5 8L144.042 36.5941L133.023 30.2744L139.231 41.1005L111 45.5014L139.256 49.9061L133.024 60.7738L144.05 54.4505L148.501 83.0008L152.914 54.6889L163.523 60.7725L157.327 49.9704L186.001 45.4996L157.351 41.0346L163.522 30.2732L152.92 36.3544Z"/>
</mask>
<path fill-rule="evenodd" clip-rule="evenodd" d="M152.92 36.3544L148.5 8L144.042 36.5941L133.023 30.2744L139.231 41.1005L111 45.5014L139.256 49.9061L133.024 60.7738L144.05 54.4505L148.501 83.0008L152.914 54.6889L163.523 60.7725L157.327 49.9704L186.001 45.4996L157.351 41.0346L163.522 30.2732L152.92 36.3544Z" fill="#F7D7A0"/>
<path d="M148.5 8L150.476 7.69195L146.524 7.69195L148.5 8ZM152.92 36.3544L150.944 36.6624L151.392 39.5365L153.915 38.0892L152.92 36.3544ZM144.042 36.5941L143.047 38.329L145.57 39.776L146.018 36.9021L144.042 36.5941ZM133.023 30.2744L134.018 28.5394L127.617 24.8688L131.288 31.2694L133.023 30.2744ZM139.231 41.1005L139.539 43.0767L142.413 42.6287L140.966 40.1056L139.231 41.1005ZM111 45.5014L110.692 43.5252L110.692 47.4775L111 45.5014ZM139.256 49.9061L140.991 50.9011L142.438 48.378L139.564 47.93L139.256 49.9061ZM133.024 60.7738L131.289 59.7788L127.618 66.1794L134.019 62.5088L133.024 60.7738ZM144.05 54.4505L146.026 54.1424L145.578 51.2686L143.055 52.7156L144.05 54.4505ZM148.501 83.0008L146.525 83.3089L150.478 83.3087L148.501 83.0008ZM152.914 54.6889L153.909 52.9539L151.385 51.5071L150.938 54.3809L152.914 54.6889ZM163.523 60.7725L162.528 62.5075L168.929 66.1778L165.258 59.7774L163.523 60.7725ZM157.327 49.9704L157.019 47.9943L154.145 48.4424L155.592 50.9655L157.327 49.9704ZM186.001 45.4996L186.309 47.4757L186.309 43.5234L186.001 45.4996ZM157.351 41.0346L155.616 40.0398L154.169 42.5629L157.043 43.0108L157.351 41.0346ZM163.522 30.2732L165.257 31.2681L168.927 24.8672L162.527 28.5383L163.522 30.2732ZM146.524 8.30805L150.944 36.6624L154.896 36.0463L150.476 7.69195L146.524 8.30805ZM146.018 36.9021L150.476 8.30805L146.524 7.69195L142.066 36.286L146.018 36.9021ZM132.028 32.0093L143.047 38.329L145.037 34.8591L134.018 28.5394L132.028 32.0093ZM140.966 40.1056L134.758 29.2794L131.288 31.2694L137.496 42.0955L140.966 40.1056ZM111.308 47.4775L139.539 43.0767L138.923 39.1244L110.692 43.5252L111.308 47.4775ZM139.564 47.93L111.308 43.5252L110.692 47.4775L138.948 51.8822L139.564 47.93ZM134.759 61.7688L140.991 50.9011L137.521 48.9111L131.289 59.7788L134.759 61.7688ZM143.055 52.7156L132.029 59.0389L134.019 62.5088L145.045 56.1854L143.055 52.7156ZM150.478 82.6926L146.026 54.1424L142.074 54.7586L146.525 83.3089L150.478 82.6926ZM150.938 54.3809L146.525 82.6928L150.478 83.3087L154.89 54.9969L150.938 54.3809ZM164.518 59.0375L153.909 52.9539L151.919 56.4239L162.528 62.5075L164.518 59.0375ZM155.592 50.9655L161.788 61.7676L165.258 59.7774L159.062 48.9753L155.592 50.9655ZM185.693 43.5235L157.019 47.9943L157.635 51.9465L186.309 47.4757L185.693 43.5235ZM157.043 43.0108L185.693 47.4757L186.309 43.5234L157.659 39.0585L157.043 43.0108ZM161.787 29.2784L155.616 40.0398L159.086 42.0295L165.257 31.2681L161.787 29.2784ZM153.915 38.0892L164.517 32.0081L162.527 28.5383L151.925 34.6195L153.915 38.0892Z" fill="#F9AA61" mask="url(#path-3-inside-1)"/>
</svg>
