<svg width="1200" height="423" viewBox="0 0 1200 423" fill="none" xmlns="http://www.w3.org/2000/svg">
<rect width="1200" height="423" rx="6" fill="#EE3B23"/>
<rect width="1200" height="423" rx="6" fill="url(#paint0_linear)"/>
<rect width="1200" height="423" rx="6" fill="url(#paint1_linear)"/>
<mask id="path-2-inside-1" fill="white">
<path fill-rule="evenodd" clip-rule="evenodd" d="M293.28 226.683L290.087 204L286.868 226.875L278.908 221.819L283.393 230.48L263 234.001L283.411 237.524L278.909 246.218L286.873 241.16L290.089 264L293.276 241.351L300.939 246.217L296.464 237.576L317.176 233.999L296.481 230.427L300.939 221.818L293.28 226.683Z"/>
</mask>
<path fill-rule="evenodd" clip-rule="evenodd" d="M293.28 226.683L290.087 204L286.868 226.875L278.908 221.819L283.393 230.48L263 234.001L283.411 237.524L278.909 246.218L286.873 241.16L290.089 264L293.276 241.351L300.939 246.217L296.464 237.576L317.176 233.999L296.481 230.427L300.939 221.818L293.28 226.683Z" fill="white"/>
<path fill-rule="evenodd" clip-rule="evenodd" d="M293.28 226.683L290.087 204L286.868 226.875L278.908 221.819L283.393 230.48L263 234.001L283.411 237.524L278.909 246.218L286.873 241.16L290.089 264L293.276 241.351L300.939 246.217L296.464 237.576L317.176 233.999L296.481 230.427L300.939 221.818L293.28 226.683Z" fill="white"/>
<path fill-rule="evenodd" clip-rule="evenodd" d="M293.28 226.683L290.087 204L286.868 226.875L278.908 221.819L283.393 230.48L263 234.001L283.411 237.524L278.909 246.218L286.873 241.16L290.089 264L293.276 241.351L300.939 246.217L296.464 237.576L317.176 233.999L296.481 230.427L300.939 221.818L293.28 226.683Z" fill="white"/>
<path fill-rule="evenodd" clip-rule="evenodd" d="M293.28 226.683L290.087 204L286.868 226.875L278.908 221.819L283.393 230.48L263 234.001L283.411 237.524L278.909 246.218L286.873 241.16L290.089 264L293.276 241.351L300.939 246.217L296.464 237.576L317.176 233.999L296.481 230.427L300.939 221.818L293.28 226.683Z" fill="white"/>
<path fill-rule="evenodd" clip-rule="evenodd" d="M293.28 226.683L290.087 204L286.868 226.875L278.908 221.819L283.393 230.48L263 234.001L283.411 237.524L278.909 246.218L286.873 241.16L290.089 264L293.276 241.351L300.939 246.217L296.464 237.576L317.176 233.999L296.481 230.427L300.939 221.818L293.28 226.683Z" fill="white"/>
<path d="M290.087 204L291.078 203.861L289.097 203.861L290.087 204ZM293.28 226.683L292.29 226.823L292.506 228.359L293.816 227.527L293.28 226.683ZM286.868 226.875L286.332 227.719L287.642 228.551L287.858 227.014L286.868 226.875ZM278.908 221.819L279.444 220.975L276.316 218.988L278.02 222.279L278.908 221.819ZM283.393 230.48L283.563 231.465L284.909 231.233L284.281 230.02L283.393 230.48ZM263 234.001L262.83 233.015L262.83 234.986L263 234.001ZM283.411 237.524L284.299 237.984L284.927 236.771L283.581 236.539L283.411 237.524ZM278.909 246.218L278.021 245.759L276.317 249.049L279.445 247.063L278.909 246.218ZM286.873 241.16L287.863 241.02L287.647 239.484L286.337 240.316L286.873 241.16ZM290.089 264L289.098 264.139L291.079 264.139L290.089 264ZM293.276 241.351L293.812 240.506L292.502 239.674L292.286 241.211L293.276 241.351ZM300.939 246.217L300.403 247.062L303.532 249.048L301.827 245.758L300.939 246.217ZM296.464 237.576L296.294 236.59L294.948 236.823L295.576 238.036L296.464 237.576ZM317.176 233.999L317.346 234.985L317.346 233.014L317.176 233.999ZM296.481 230.427L295.593 229.968L294.965 231.18L296.311 231.413L296.481 230.427ZM300.939 221.818L301.827 222.278L303.53 218.987L300.402 220.974L300.939 221.818ZM289.097 204.139L292.29 226.823L294.27 226.544L291.078 203.861L289.097 204.139ZM287.858 227.014L291.078 204.139L289.097 203.861L285.877 226.736L287.858 227.014ZM278.372 222.663L286.332 227.719L287.404 226.031L279.444 220.975L278.372 222.663ZM284.281 230.02L279.796 221.359L278.02 222.279L282.505 230.94L284.281 230.02ZM263.17 234.986L283.563 231.465L283.222 229.495L262.83 233.015L263.17 234.986ZM283.581 236.539L263.17 233.015L262.83 234.986L283.24 238.51L283.581 236.539ZM279.797 246.678L284.299 237.984L282.523 237.065L278.021 245.759L279.797 246.678ZM286.337 240.316L278.372 245.374L279.445 247.063L287.409 242.004L286.337 240.316ZM291.079 263.86L287.863 241.02L285.883 241.299L289.098 264.139L291.079 263.86ZM292.286 241.211L289.098 263.86L291.079 264.139L294.266 241.49L292.286 241.211ZM301.476 245.373L293.812 240.506L292.74 242.195L300.403 247.062L301.476 245.373ZM295.576 238.036L300.052 246.677L301.827 245.758L297.352 237.116L295.576 238.036ZM317.006 233.014L296.294 236.59L296.634 238.561L317.346 234.985L317.006 233.014ZM296.311 231.413L317.006 234.985L317.346 233.014L296.651 229.442L296.311 231.413ZM300.05 221.359L295.593 229.968L297.369 230.887L301.827 222.278L300.05 221.359ZM293.816 227.527L301.475 222.662L300.402 220.974L292.744 225.839L293.816 227.527Z" fill="#F36B29" mask="url(#path-2-inside-1)"/>
<text fill="white" xml:space="preserve" style="white-space: pre" font-family="Arial" font-size="32" letter-spacing="0em"><tspan x="215" y="288.594">Wilmington&#x2019;s finest external surface cleaning and care</tspan></text>
<text fill="#11909E" stroke="white" stroke-width="4" xml:space="preserve" style="white-space: pre" font-family="Lobster" font-size="120" letter-spacing="0em"><tspan x="147" y="204">Crystal Clear Shine</tspan></text>
<text fill="#6BAD9D" stroke="white" xml:space="preserve" style="white-space: pre" font-family="Lobster" font-size="60" letter-spacing="0em"><tspan x="214" y="90">Movin&#x2019; on up to that</tspan></text>
<mask id="path-7-inside-2" fill="white">
<path fill-rule="evenodd" clip-rule="evenodd" d="M1037.85 134.354L1033.86 106L1029.84 134.594L1019.88 128.274L1025.49 139.101L1000 143.501L1025.51 147.906L1019.89 158.774L1029.84 152.45L1033.86 181.001L1037.85 152.689L1047.42 158.772L1041.83 147.97L1067.72 143.5L1041.85 139.035L1047.42 128.273L1037.85 134.354Z"/>
</mask>
<path fill-rule="evenodd" clip-rule="evenodd" d="M1037.85 134.354L1033.86 106L1029.84 134.594L1019.88 128.274L1025.49 139.101L1000 143.501L1025.51 147.906L1019.89 158.774L1029.84 152.45L1033.86 181.001L1037.85 152.689L1047.42 158.772L1041.83 147.97L1067.72 143.5L1041.85 139.035L1047.42 128.273L1037.85 134.354Z" fill="white"/>
<path fill-rule="evenodd" clip-rule="evenodd" d="M1037.85 134.354L1033.86 106L1029.84 134.594L1019.88 128.274L1025.49 139.101L1000 143.501L1025.51 147.906L1019.89 158.774L1029.84 152.45L1033.86 181.001L1037.85 152.689L1047.42 158.772L1041.83 147.97L1067.72 143.5L1041.85 139.035L1047.42 128.273L1037.85 134.354Z" fill="white"/>
<path fill-rule="evenodd" clip-rule="evenodd" d="M1037.85 134.354L1033.86 106L1029.84 134.594L1019.88 128.274L1025.49 139.101L1000 143.501L1025.51 147.906L1019.89 158.774L1029.84 152.45L1033.86 181.001L1037.85 152.689L1047.42 158.772L1041.83 147.97L1067.72 143.5L1041.85 139.035L1047.42 128.273L1037.85 134.354Z" fill="white"/>
<path fill-rule="evenodd" clip-rule="evenodd" d="M1037.85 134.354L1033.86 106L1029.84 134.594L1019.88 128.274L1025.49 139.101L1000 143.501L1025.51 147.906L1019.89 158.774L1029.84 152.45L1033.86 181.001L1037.85 152.689L1047.42 158.772L1041.83 147.97L1067.72 143.5L1041.85 139.035L1047.42 128.273L1037.85 134.354Z" fill="white"/>
<path fill-rule="evenodd" clip-rule="evenodd" d="M1037.85 134.354L1033.86 106L1029.84 134.594L1019.88 128.274L1025.49 139.101L1000 143.501L1025.51 147.906L1019.89 158.774L1029.84 152.45L1033.86 181.001L1037.85 152.689L1047.42 158.772L1041.83 147.97L1067.72 143.5L1041.85 139.035L1047.42 128.273L1037.85 134.354Z" fill="white"/>
<path d="M1033.86 106L1035.84 105.721L1031.88 105.721L1033.86 106ZM1037.85 134.354L1035.87 134.633L1036.3 137.707L1038.92 136.043L1037.85 134.354ZM1029.84 134.594L1028.76 136.282L1031.38 137.946L1031.82 134.873L1029.84 134.594ZM1019.88 128.274L1020.96 126.586L1014.7 122.612L1018.11 129.194L1019.88 128.274ZM1025.49 139.101L1025.83 141.071L1028.52 140.607L1027.27 138.181L1025.49 139.101ZM1000 143.501L999.66 141.531L999.66 145.472L1000 143.501ZM1025.51 147.906L1027.29 148.826L1028.55 146.4L1025.85 145.935L1025.51 147.906ZM1019.89 158.774L1018.11 157.854L1014.7 164.436L1020.96 160.462L1019.89 158.774ZM1029.84 152.45L1031.82 152.172L1031.39 149.098L1028.77 150.762L1029.84 152.45ZM1033.86 181.001L1031.88 181.28L1035.84 181.279L1033.86 181.001ZM1037.85 152.689L1038.92 151.001L1036.3 149.337L1035.86 152.41L1037.85 152.689ZM1047.42 158.772L1046.35 160.461L1052.61 164.434L1049.2 157.853L1047.42 158.772ZM1041.83 147.97L1041.49 146L1038.8 146.464L1040.05 148.89L1041.83 147.97ZM1067.72 143.5L1068.06 145.47L1068.06 141.529L1067.72 143.5ZM1041.85 139.035L1040.08 138.115L1038.82 140.541L1041.51 141.005L1041.85 139.035ZM1047.42 128.273L1049.2 129.193L1052.61 122.611L1046.35 126.585L1047.42 128.273ZM1031.88 106.279L1035.87 134.633L1039.83 134.076L1035.84 105.721L1031.88 106.279ZM1031.82 134.873L1035.84 106.279L1031.88 105.721L1027.85 134.315L1031.82 134.873ZM1018.81 129.963L1028.76 136.282L1030.91 132.906L1020.96 126.586L1018.81 129.963ZM1027.27 138.181L1021.66 127.355L1018.11 129.194L1023.71 140.02L1027.27 138.181ZM1000.34 145.472L1025.83 141.071L1025.15 137.13L999.66 141.531L1000.34 145.472ZM1025.85 145.935L1000.34 141.531L999.66 145.472L1025.17 149.877L1025.85 145.935ZM1021.66 159.693L1027.29 148.826L1023.74 146.986L1018.11 157.854L1021.66 159.693ZM1028.77 150.762L1018.81 157.086L1020.96 160.462L1030.91 154.139L1028.77 150.762ZM1035.84 180.722L1031.82 152.172L1027.86 152.729L1031.88 181.28L1035.84 180.722ZM1035.86 152.41L1031.88 180.722L1035.84 181.279L1039.83 152.968L1035.86 152.41ZM1048.5 157.084L1038.92 151.001L1036.77 154.377L1046.35 160.461L1048.5 157.084ZM1040.05 148.89L1045.65 159.692L1049.2 157.853L1043.61 147.051L1040.05 148.89ZM1067.38 141.529L1041.49 146L1042.17 149.941L1068.06 145.47L1067.38 141.529ZM1041.51 141.005L1067.38 145.47L1068.06 141.529L1042.19 137.064L1041.51 141.005ZM1045.65 127.354L1040.08 138.115L1043.63 139.954L1049.2 129.193L1045.65 127.354ZM1038.92 136.043L1048.5 129.961L1046.35 126.585L1036.78 132.666L1038.92 136.043Z" fill="#F5C600" mask="url(#path-7-inside-2)"/>
<defs>
<style type="text/css">
  @import url("https://fonts.googleapis.com/css2?family=Lobster");
</style>

<linearGradient id="paint0_linear" x1="600" y1="3.58876e-05" x2="196.353" y2="366.698" gradientUnits="userSpaceOnUse">
<stop stop-color="#F36B29"/>
<stop offset="1" stop-color="white" stop-opacity="0"/>
</linearGradient>
<linearGradient id="paint1_linear" x1="600" y1="0" x2="668.155" y2="313.375" gradientUnits="userSpaceOnUse">
<stop stop-color="#F5C600"/>
<stop offset="1" stop-color="white" stop-opacity="0"/>
</linearGradient>
</defs>
</svg>
