<?xml version="1.0" standalone="no"?>
<!DOCTYPE svg PUBLIC "-//W3C//DTD SVG 20010904//EN"
 "http://www.w3.org/TR/2001/REC-SVG-20010904/DTD/svg10.dtd">
<svg version="1.0" xmlns="http://www.w3.org/2000/svg"
 width="700.000000pt" height="700.000000pt" viewBox="0 0 700.000000 700.000000"
 preserveAspectRatio="xMidYMid meet">
<metadata>
Created by potrace 1.11, written by Peter Selinger 2001-2013
</metadata>
<g transform="translate(0.000000,700.000000) scale(0.100000,-0.100000)"
fill="#000000" stroke="none">
<path d="M3499 6978 c-2 -9 -38 -227 -44 -268 -6 -41 -17 -114 -21 -135 -2
-11 -6 -36 -9 -55 -3 -19 -7 -46 -10 -60 -2 -14 -6 -41 -9 -60 -5 -40 -12 -82
-31 -200 -8 -47 -16 -103 -20 -125 -3 -22 -8 -53 -11 -70 -3 -16 -7 -41 -9
-55 -8 -62 -26 -180 -35 -230 -5 -30 -12 -73 -15 -95 -3 -22 -7 -49 -9 -60 -2
-11 -7 -45 -12 -75 -4 -30 -8 -57 -9 -60 -1 -6 -17 -107 -21 -135 -1 -11 -5
-33 -8 -50 -3 -16 -21 -136 -41 -265 -20 -129 -38 -244 -40 -255 -3 -11 -7
-38 -10 -60 -3 -22 -12 -83 -21 -135 -20 -126 -27 -173 -27 -187 0 -14 14 -21
-192 97 -88 51 -173 100 -190 109 -43 25 -163 94 -183 106 -10 6 -104 60 -210
120 -106 61 -206 118 -223 127 l-29 18 19 -38 c10 -20 39 -71 63 -112 24 -41
48 -82 52 -90 4 -8 12 -24 19 -35 12 -20 58 -100 95 -165 55 -98 138 -242 226
-393 54 -93 96 -170 94 -173 -2 -2 -22 -6 -44 -9 -21 -4 -46 -8 -54 -10 -8 -2
-35 -7 -60 -10 -25 -3 -101 -15 -170 -26 -69 -11 -141 -22 -160 -25 -19 -3
-46 -7 -60 -9 -14 -3 -43 -7 -65 -11 -22 -3 -47 -7 -55 -9 -8 -2 -37 -7 -65
-10 -27 -3 -72 -10 -100 -15 -48 -9 -254 -41 -285 -44 -16 -2 -100 -15 -140
-22 -14 -2 -83 -13 -155 -24 -71 -11 -143 -22 -160 -25 -16 -2 -74 -12 -127
-20 -54 -8 -142 -22 -195 -31 -54 -8 -109 -17 -123 -19 -43 -7 -223 -34 -264
-40 -21 -3 -48 -7 -60 -10 -12 -2 -37 -7 -56 -9 -180 -25 -254 -44 -180 -47
39 -1 46 -2 210 -29 63 -10 135 -22 160 -25 25 -3 71 -10 103 -15 31 -6 83
-14 115 -20 31 -5 77 -12 102 -15 25 -3 70 -10 100 -15 30 -5 73 -12 95 -15
22 -3 51 -8 65 -10 14 -3 39 -7 55 -9 17 -2 50 -8 75 -12 25 -4 54 -8 65 -9
11 -2 47 -8 80 -13 33 -6 80 -13 105 -16 47 -6 52 -7 160 -26 36 -7 79 -13 95
-15 17 -2 59 -8 95 -14 36 -6 83 -13 105 -16 22 -3 51 -8 65 -10 14 -3 43 -7
65 -11 22 -3 81 -12 130 -20 115 -19 131 -22 185 -29 25 -3 56 -8 70 -10 56
-11 68 -13 125 -21 33 -4 63 -9 68 -10 4 -1 19 -2 35 -3 65 -3 69 5 -208 -477
-145 -253 -275 -479 -288 -502 l-25 -44 33 17 c18 9 66 37 107 61 41 24 77 44
79 44 3 0 17 8 32 19 23 16 185 109 307 177 22 12 117 66 210 119 256 148 256
148 259 144 2 -4 25 -141 32 -193 2 -17 6 -42 8 -56 3 -14 8 -45 11 -70 3 -25
10 -70 15 -100 5 -30 12 -73 15 -95 4 -22 8 -51 10 -65 3 -14 7 -43 10 -65 4
-22 9 -53 11 -70 5 -26 78 -497 89 -565 2 -14 13 -85 24 -157 12 -73 30 -193
42 -265 26 -170 27 -175 34 -223 3 -22 10 -65 15 -95 5 -30 12 -73 15 -95 5
-38 20 -132 29 -185 3 -14 7 -43 10 -65 3 -22 8 -53 11 -70 4 -16 12 -70 19
-120 8 -56 15 -82 19 -70 5 16 44 260 72 445 2 14 6 43 10 65 3 22 8 51 10 65
2 14 9 54 14 90 6 36 13 81 16 100 3 19 14 94 26 165 11 72 22 146 25 165 2
19 11 73 19 120 8 47 17 105 20 130 3 25 10 70 15 100 17 101 23 135 35 220
11 75 14 92 25 165 7 39 14 84 16 100 3 17 14 86 25 155 11 68 26 167 34 220
8 52 17 113 20 135 7 46 15 94 20 115 2 8 4 23 4 32 1 23 7 20 165 -72 72 -42
156 -90 186 -107 30 -16 86 -48 124 -71 37 -23 69 -42 71 -42 2 0 101 -56 221
-125 119 -69 219 -125 221 -125 2 0 -8 18 -22 40 -14 22 -25 42 -25 45 0 2
-18 34 -40 70 -22 36 -40 68 -40 71 0 3 -16 30 -35 60 -19 30 -35 56 -35 59 0
2 -68 122 -151 267 -83 145 -163 283 -177 308 -13 25 -28 49 -33 55 -13 13
-11 32 4 32 6 0 55 8 107 16 52 9 118 19 145 22 28 4 57 8 65 10 8 2 29 6 45
9 64 10 121 18 135 21 8 2 38 6 65 9 28 4 57 9 65 11 8 2 35 6 60 9 25 3 54 8
65 10 11 2 41 6 66 10 25 4 57 9 70 11 34 6 147 23 194 30 22 3 51 8 65 10 14
3 43 7 65 10 22 3 83 13 135 21 101 16 139 22 180 29 14 2 68 10 120 19 52 8
111 17 130 20 19 3 78 12 130 20 52 8 113 18 135 21 23 3 50 7 62 9 12 3 43 8
70 12 48 7 67 10 113 18 14 3 45 8 70 11 25 3 54 7 65 9 11 2 45 8 75 12 30 4
58 9 63 10 4 1 21 2 37 3 58 2 29 18 -57 31 -49 7 -97 14 -108 16 -11 2 -65
11 -120 19 -219 34 -253 39 -350 55 -109 17 -117 18 -165 25 -52 7 -83 12
-160 25 -30 5 -73 12 -95 15 -70 10 -180 27 -285 45 -30 5 -75 12 -100 15 -25
3 -70 10 -100 15 -103 17 -117 20 -151 25 -19 2 -52 7 -74 10 -33 4 -105 16
-125 20 -3 0 -27 4 -55 9 -27 4 -61 9 -75 11 -49 8 -225 36 -250 40 -14 2 -45
7 -70 10 -167 22 -265 43 -262 55 3 13 248 443 559 983 5 8 -17 -4 -172 -93
-55 -32 -117 -67 -137 -79 -21 -11 -53 -29 -70 -40 -104 -59 -239 -137 -278
-158 -25 -14 -49 -29 -55 -33 -5 -4 -37 -22 -70 -40 -33 -17 -90 -50 -128 -72
-37 -23 -69 -39 -71 -37 -4 4 -47 263 -61 364 -3 23 -8 52 -10 65 -3 14 -7 43
-10 65 -3 22 -7 50 -9 62 -3 11 -8 43 -12 70 -3 26 -8 57 -10 68 -2 11 -7 40
-10 65 -3 25 -7 52 -9 60 -2 8 -16 92 -30 185 -26 175 -32 216 -39 250 -2 11
-7 42 -10 69 -4 27 -13 85 -21 130 -7 44 -17 101 -20 126 -8 57 -57 373 -71
453 -9 54 -55 352 -60 392 -3 22 -8 51 -10 65 -7 37 -16 103 -17 118 0 10 -6
17 -8 10z"/>
</g>
</svg>
